<mxfile host="app.diagrams.net" modified="2023-07-03T10:26:42.700Z" agent="Mozilla/5.0 (Windows NT 10.0; Win64; x64) AppleWebKit/537.36 (KHTML, like Gecko) Chrome/114.0.0.0 Safari/537.36" etag="4yQOopNCeJvCdAfEESjO" version="21.5.2" type="github">
  <diagram name="Page-1" id="cd_uUnOZiYdbFC_O-uwG">
    <mxGraphModel dx="1434" dy="827" grid="1" gridSize="10" guides="1" tooltips="1" connect="1" arrows="1" fold="1" page="1" pageScale="1" pageWidth="850" pageHeight="1100" math="0" shadow="0">
      <root>
        <mxCell id="0" />
        <mxCell id="1" parent="0" />
        <mxCell id="FCSSEt9efNpTOg4iYAR_-7" style="edgeStyle=none;rounded=0;orthogonalLoop=1;jettySize=auto;html=1;entryX=0;entryY=0.5;entryDx=0;entryDy=0;" edge="1" parent="1" source="FCSSEt9efNpTOg4iYAR_-1" target="FCSSEt9efNpTOg4iYAR_-2">
          <mxGeometry relative="1" as="geometry" />
        </mxCell>
        <mxCell id="FCSSEt9efNpTOg4iYAR_-1" value="CLIENT" style="rounded=0;whiteSpace=wrap;html=1;" vertex="1" parent="1">
          <mxGeometry x="40" y="310" width="110" height="60" as="geometry" />
        </mxCell>
        <mxCell id="FCSSEt9efNpTOg4iYAR_-8" style="edgeStyle=none;rounded=0;orthogonalLoop=1;jettySize=auto;html=1;entryX=0;entryY=0.5;entryDx=0;entryDy=0;" edge="1" parent="1" source="FCSSEt9efNpTOg4iYAR_-2" target="FCSSEt9efNpTOg4iYAR_-3">
          <mxGeometry relative="1" as="geometry" />
        </mxCell>
        <mxCell id="FCSSEt9efNpTOg4iYAR_-2" value="NGINX" style="rounded=0;whiteSpace=wrap;html=1;" vertex="1" parent="1">
          <mxGeometry x="350" y="310" width="120" height="60" as="geometry" />
        </mxCell>
        <mxCell id="FCSSEt9efNpTOg4iYAR_-3" value="Azure Web App" style="rounded=0;whiteSpace=wrap;html=1;" vertex="1" parent="1">
          <mxGeometry x="540" y="310" width="120" height="60" as="geometry" />
        </mxCell>
      </root>
    </mxGraphModel>
  </diagram>
</mxfile>
